<?xml version="1.0" standalone="no"?>
<!DOCTYPE svg PUBLIC "-//W3C//DTD SVG 20010904//EN"
 "http://www.w3.org/TR/2001/REC-SVG-20010904/DTD/svg10.dtd">
<svg version="1.0" xmlns="http://www.w3.org/2000/svg"
 width="1903.000000pt" height="919.000000pt" viewBox="0 0 1903.000000 919.000000"
 preserveAspectRatio="xMidYMid meet">

<g transform="translate(0.000000,919.000000) scale(0.100000,-0.100000)"
fill="#000000" stroke="none">
<path d="M745 9179 c-358 -33 -596 -207 -688 -504 -55 -179 -52 77 -52 -4080
0 -4157 -3 -3901 52 -4080 36 -117 86 -200 172 -286 109 -109 213 -161 411
-206 70 -16 376 -17 4438 -20 l4362 -3 0 4595 0 4595 -4302 -1 c-2367 -1
-4343 -5 -4393 -10z m1715 -2197 c67 -66 84 -128 77 -277 -9 -199 -85 -375
-221 -511 -106 -106 -185 -136 -270 -100 -82 34 -129 140 -128 290 2 224 130
488 289 597 55 38 83 47 152 48 51 1 56 -1 101 -47z m-283 -1116 c0 -8 -5 -14
-11 -13 -6 1 -10 -4 -8 -10 1 -7 -2 -12 -7 -10 -5 1 -8 -1 -7 -4 0 -4 -7 -16
-17 -26 -9 -11 -14 -23 -10 -27 5 -4 1 -6 -7 -4 -8 2 -14 -3 -12 -9 1 -7 -5
-13 -14 -13 -8 0 -13 -4 -10 -9 3 -5 -1 -14 -9 -21 -8 -7 -12 -16 -9 -21 3 -5
2 -8 -3 -7 -4 2 -9 -1 -10 -5 -1 -4 -9 -15 -18 -23 -8 -9 -13 -20 -9 -25 3 -5
0 -8 -8 -7 -7 2 -12 -3 -11 -9 2 -7 0 -12 -5 -10 -4 1 -8 -2 -9 -6 -1 -4 -9
-15 -18 -23 -8 -9 -13 -20 -9 -25 3 -5 0 -8 -8 -7 -7 2 -12 -3 -11 -9 2 -7 0
-12 -5 -10 -4 1 -7 -1 -7 -4 0 -4 -8 -16 -18 -26 -9 -11 -14 -23 -10 -27 5 -4
3 -6 -3 -4 -7 1 -11 0 -10 -3 0 -3 -7 -13 -17 -23 -9 -10 -15 -22 -11 -27 3
-5 0 -8 -8 -7 -7 2 -12 -2 -11 -8 1 -6 -4 -11 -12 -11 -17 0 -7 28 42 117 59
108 122 190 215 283 48 48 89 87 91 87 2 0 4 -6 4 -14z m-722 -205 c24 -26 27
-35 18 -49 -7 -9 -26 -43 -43 -75 -17 -32 -39 -72 -50 -90 -11 -17 -25 -43
-32 -57 -12 -24 -12 -24 -16 18 -3 45 -12 52 -32 27 -18 -22 -54 -15 -58 12
-2 11 27 80 63 152 l66 132 27 -20 c15 -10 40 -33 57 -50z m2065 -100 c5 -11
10 -38 10 -60 0 -31 -6 -44 -26 -60 -35 -28 -42 -26 -46 7 -2 18 -9 28 -24 30
-28 4 -57 -31 -63 -80 -6 -43 -15 -52 -101 -95 -19 -9 -54 -30 -76 -45 -23
-15 -45 -28 -48 -28 -3 0 -35 -18 -71 -40 -36 -22 -68 -40 -71 -40 -3 0 -25
-13 -48 -28 -22 -15 -57 -36 -76 -45 -19 -10 -48 -27 -65 -37 -70 -46 -70 -46
-73 38 -2 41 1 79 6 84 25 25 720 418 739 418 12 0 27 -9 33 -19z m380 -259
c0 -5 -11 -19 -25 -32 -14 -13 -23 -25 -20 -28 2 -2 -1 -10 -8 -17 -41 -43
-76 -85 -70 -85 4 0 -11 -18 -32 -40 -21 -22 -36 -40 -32 -40 6 0 -29 -43 -71
-86 -7 -7 -12 -16 -11 -19 0 -4 -18 -27 -41 -51 -22 -24 -38 -44 -34 -44 5 0
-10 -18 -31 -40 -21 -22 -34 -40 -28 -40 5 0 74 36 151 80 78 44 143 80 147
80 3 0 5 -15 5 -32 0 -32 -6 -36 -226 -166 -123 -73 -222 -137 -219 -142 3 -4
2 -10 -2 -12 -5 -2 -21 -18 -38 -37 l-30 -34 60 33 c33 18 89 50 125 70 118
68 110 66 110 26 0 -35 -1 -36 -197 -152 -183 -107 -260 -161 -248 -172 2 -2
-1 -10 -8 -17 -41 -43 -76 -85 -70 -85 4 0 -11 -18 -32 -40 -21 -22 -36 -40
-31 -40 4 0 -12 -21 -36 -46 -24 -25 -43 -49 -43 -54 0 -4 -20 -29 -45 -57
-30 -32 -89 -75 -176 -126 -127 -75 -132 -79 -185 -157 -29 -44 -59 -80 -66
-80 -19 0 -19 839 0 862 6 8 140 89 297 178 157 90 476 273 709 407 233 134
430 243 437 243 8 0 14 -4 14 -8z m-572 -28 c-3 -23 -35 -45 -251 -170 -137
-79 -251 -144 -254 -144 -2 0 -3 12 -1 27 3 24 30 43 233 160 127 72 237 137
245 142 25 16 32 12 28 -15z m-1424 -180 c11 -10 16 -34 16 -70 0 -52 -2 -56
-34 -75 -19 -11 -41 -31 -50 -43 -14 -21 -90 -56 -123 -56 -7 0 -42 -18 -78
-40 -36 -22 -68 -40 -71 -40 -3 0 -25 -13 -48 -28 -22 -15 -57 -36 -76 -45
-19 -10 -48 -26 -65 -37 -16 -11 -46 -27 -65 -36 -19 -10 -42 -23 -50 -29 -25
-20 -112 -66 -117 -62 -8 9 -15 106 -9 130 5 20 58 56 268 178 145 84 308 179
363 211 55 32 105 58 112 58 6 0 19 -7 27 -16z m-184 -293 c0 -26 -14 -36
-217 -153 -120 -69 -235 -136 -255 -148 l-38 -22 0 30 c0 28 9 35 160 122 89
50 202 116 253 146 51 29 93 54 95 54 1 0 2 -13 2 -29z m498 -143 c9 -9 12
-117 12 -423 0 -227 -2 -414 -5 -417 -3 -3 -33 3 -67 13 l-61 19 -141 -79
c-97 -55 -145 -76 -153 -70 -7 7 -14 6 -18 -1 -3 -6 -12 -7 -18 -3 -13 8 -35
12 -82 16 -17 2 -35 6 -42 10 -6 4 -14 3 -18 -3 -4 -6 -12 -7 -18 -3 -13 8
-53 14 -102 16 -26 0 -171 -76 -418 -220 -5 -3 -7 12 -5 32 3 36 6 39 138 116
124 73 144 87 123 90 -5 0 -13 5 -19 10 -6 5 -14 6 -18 2 -3 -4 -12 -8 -20 -9
-9 -1 -250 -134 -418 -231 -5 -2 -8 12 -8 31 0 35 1 36 155 127 86 50 153 94
150 97 -11 11 -35 10 -29 0 5 -7 2 -8 -7 -2 -8 4 -27 9 -44 11 -31 2 -80 10
-80 13 0 1 -8 3 -18 5 -9 2 -15 0 -12 -5 3 -5 -3 -7 -12 -5 -10 2 -18 4 -18 5
0 1 -13 4 -30 6 -45 8 -70 12 -70 14 0 1 -8 3 -18 5 -9 2 -15 0 -12 -5 3 -5
-3 -7 -12 -5 -10 2 -18 4 -18 5 0 1 -8 3 -18 5 -11 2 -21 6 -24 8 -6 6 124 83
747 445 261 151 520 301 575 333 101 60 131 69 153 47z m1130 -747 c2 -70 5
-82 18 -77 16 6 5 -10 -89 -121 -75 -89 -139 -125 -152 -84 -13 41 17 80 93
121 l42 24 0 78 c0 103 23 151 70 145 12 -2 16 -21 18 -86z m-2103 -1096 c0
-26 -3 -30 -29 -30 -36 0 -56 26 -36 50 8 9 24 15 39 13 22 -2 26 -8 26 -33z
m3840 0 c0 -26 -3 -30 -29 -30 -36 0 -56 26 -36 50 8 9 24 15 39 13 22 -2 26
-8 26 -33z m-2985 -120 l0 -135 -35 0 -35 0 0 135 0 135 35 0 35 0 0 -135z
m760 -1 l0 -136 -37 3 c-21 1 -50 -2 -66 -6 -80 -22 -145 82 -102 164 19 38
68 58 106 44 29 -11 29 -11 29 28 0 38 1 39 35 39 l35 0 0 -136z m-1898 87
c38 -43 37 -61 -6 -61 -18 0 -39 6 -45 14 -32 39 -101 10 -101 -43 0 -59 52
-90 96 -56 27 20 84 20 84 -1 0 -25 -53 -70 -91 -78 -88 -16 -159 44 -159 135
0 37 6 55 27 79 35 42 58 51 117 46 41 -3 55 -9 78 -35z m2422 24 c43 -21 66
-63 66 -123 0 -35 -6 -57 -21 -76 l-21 -27 26 -28 c14 -15 26 -30 26 -34 0
-16 -77 -6 -94 12 -9 10 -35 22 -58 25 -22 4 -49 11 -60 17 -32 17 -58 70 -58
121 0 99 100 157 194 113z m266 -5 c31 -31 26 -50 -14 -50 -19 0 -36 6 -39 13
-3 9 -8 9 -17 1 -9 -9 -3 -21 25 -53 35 -38 39 -40 55 -26 19 17 70 20 70 5 0
-6 -7 -25 -16 -42 -15 -29 -14 -31 7 -54 12 -13 25 -24 28 -24 4 0 26 56 51
125 l45 126 39 -3 38 -3 44 -119 c24 -66 44 -123 44 -128 0 -4 -16 -8 -36 -8
-27 0 -37 5 -41 20 -4 16 -14 20 -50 20 -36 0 -46 -4 -50 -20 -5 -18 -14 -20
-84 -20 -43 0 -80 4 -83 9 -4 5 -20 3 -37 -6 -44 -22 -108 -12 -136 22 -29 33
-29 65 -1 100 16 20 21 39 19 66 -2 29 2 40 21 53 32 23 93 21 118 -4z m-2490
-70 c0 -35 -3 -40 -23 -40 -35 0 -47 -19 -47 -77 l0 -53 -35 0 -35 0 0 100 0
100 35 0 c19 0 35 -5 35 -11 0 -5 10 -3 22 5 37 26 48 20 48 -24z m270 25 c35
-18 50 -43 50 -84 l0 -31 -72 0 c-69 0 -71 -1 -55 -17 14 -15 21 -15 37 -5 11
6 36 12 55 12 l36 0 -16 -29 c-17 -34 -71 -56 -114 -46 -69 15 -104 113 -61
168 37 47 88 59 140 32z m301 -11 c29 -26 25 -54 -9 -54 -15 0 -33 5 -39 11
-6 6 -19 9 -29 7 -15 -4 -13 -7 11 -16 79 -30 93 -47 81 -97 -7 -28 -64 -50
-104 -40 -31 8 -72 43 -72 62 0 16 61 18 77 2 6 -6 19 -9 29 -7 15 4 13 7 -11
17 -65 27 -80 37 -83 55 -6 31 7 62 30 74 31 15 95 8 119 -14z m217 16 l42 1
0 -101 0 -101 -42 2 c-24 1 -53 -1 -66 -5 -78 -25 -140 81 -96 165 18 36 48
50 89 44 17 -3 49 -5 73 -5z m350 0 l42 1 0 -101 0 -102 -37 3 c-21 1 -50 -2
-66 -6 -106 -29 -163 146 -66 201 13 8 37 12 54 9 17 -3 49 -5 73 -5z m205 -1
c21 -9 47 -46 47 -64 0 -3 -16 -5 -35 -5 -19 0 -35 5 -35 10 0 6 -9 10 -20 10
-35 0 -21 -15 25 -28 57 -15 77 -49 54 -90 -22 -39 -75 -50 -125 -26 -25 12
-40 27 -42 42 -3 19 1 22 32 22 20 0 36 -4 36 -10 0 -5 9 -10 20 -10 36 0 21
17 -26 30 -54 16 -74 45 -56 85 19 41 77 56 125 34z m563 -21 c12 -13 26 -40
29 -60 l7 -38 -71 0 c-39 0 -71 -4 -71 -9 0 -15 30 -22 50 -11 23 12 80 13 80
1 0 -20 -42 -60 -70 -66 -38 -8 -96 11 -115 38 -17 25 -20 99 -5 127 28 53
122 63 166 18z m1212 22 l42 1 0 -101 0 -100 -52 -1 c-29 0 -68 -1 -87 -1 -50
-2 -81 37 -81 103 0 43 5 55 30 81 27 26 36 29 68 24 20 -3 56 -6 80 -6z m249
-23 c29 -29 39 -91 21 -127 -18 -35 -80 -64 -122 -56 -98 19 -114 167 -21 207
34 15 96 3 122 -24z m973 18 c37 -19 50 -43 50 -95 0 -53 -23 -87 -70 -101
-77 -23 -140 22 -140 101 0 53 14 78 53 95 42 19 71 18 107 0z m-4250 -95 l0
-100 -35 0 -35 0 0 100 0 100 35 0 35 0 0 -100z m3617 38 l20 -63 18 63 18 62
38 0 38 0 -29 -82 c-42 -126 -37 -118 -85 -118 l-43 0 -18 53 c-9 28 -25 73
-35 100 l-19 47 39 0 39 0 19 -62z m223 -38 l0 -100 -35 0 -35 0 0 100 0 100
35 0 35 0 0 -100z m109 38 l19 -63 18 62 19 63 38 0 c44 0 44 10 -2 -117 l-29
-78 -44 -3 -43 -3 -33 93 c-18 51 -32 96 -32 101 0 4 16 7 35 7 33 0 35 -2 54
-62z m-449 -8 l0 -30 -85 0 -85 0 0 30 0 30 85 0 85 0 0 -30z m-3830 -455 c0
-8 -7 -15 -15 -15 -8 0 -15 7 -15 15 0 8 7 15 15 15 8 0 15 -7 15 -15z m710
-75 l0 -90 -45 0 c-50 0 -65 16 -65 72 0 41 15 58 52 58 23 0 28 4 28 25 0 16
6 25 15 25 12 0 15 -17 15 -90z m110 75 c-13 -16 -40 -20 -40 -7 0 14 12 22
33 22 16 0 17 -3 7 -15z m200 0 c0 -8 -7 -15 -15 -15 -8 0 -15 7 -15 15 0 8 7
15 15 15 8 0 15 -7 15 -15z m140 -75 l0 -90 -50 0 c-54 0 -70 15 -70 65 0 45
17 65 55 65 31 0 35 3 35 25 0 16 6 25 15 25 12 0 15 -17 15 -90z m450 0 l0
-90 -50 0 c-54 0 -70 15 -70 65 0 45 17 65 55 65 31 0 35 3 35 25 0 16 6 25
15 25 12 0 15 -17 15 -90z m1030 0 l0 -90 -44 0 c-35 0 -48 5 -60 22 -33 46
-7 108 45 108 24 0 29 4 29 25 0 16 6 25 15 25 12 0 15 -17 15 -90z m60 75 c0
-8 -7 -15 -15 -15 -8 0 -15 7 -15 15 0 8 7 15 15 15 8 0 15 -7 15 -15z m109 1
c11 -13 6 -15 -28 -14 -40 0 -54 11 -28 21 23 10 45 7 56 -7z m331 -1 c0 -8
-7 -15 -15 -15 -8 0 -15 7 -15 15 0 8 7 15 15 15 8 0 15 -7 15 -15z m1730 -75
c0 -73 -3 -90 -15 -90 -12 0 -15 17 -15 90 0 73 3 90 15 90 12 0 15 -17 15
-90z m-4920 70 c0 -5 -11 -10 -25 -10 -24 0 -25 -2 -25 -75 0 -60 -3 -75 -15
-75 -12 0 -15 15 -15 75 l0 75 -30 0 c-16 0 -30 5 -30 10 0 6 30 10 70 10 40
0 70 -4 70 -10z m3840 -14 c0 -8 6 -17 13 -20 10 -5 10 -7 0 -12 -15 -7 -18
-94 -3 -94 6 0 10 -5 10 -11 0 -6 -10 -9 -22 -7 -20 3 -23 10 -26 53 -2 27 -9
53 -15 58 -9 7 -9 10 1 14 6 2 12 11 12 19 0 8 7 14 15 14 8 0 15 -6 15 -14z
m-3790 -81 c0 -51 -3 -65 -15 -65 -12 0 -15 14 -15 65 0 51 3 65 15 65 12 0
15 -14 15 -65z m100 50 c0 -8 -9 -15 -20 -15 -17 0 -20 -7 -20 -50 0 -38 -4
-50 -15 -50 -12 0 -15 14 -15 65 l0 65 35 0 c24 0 35 -5 35 -15z m98 3 c7 -7
12 -22 12 -35 0 -20 -5 -23 -40 -23 -42 0 -50 -9 -26 -29 11 -9 20 -9 35 -2
13 7 22 8 26 1 11 -18 -6 -30 -45 -30 -43 0 -60 18 -60 65 0 44 17 65 53 65
18 0 38 -5 45 -12z m192 -7 c5 -11 10 -40 10 -66 l0 -46 -52 3 c-49 3 -53 5
-56 29 -4 30 12 46 50 51 21 2 25 6 18 18 -7 12 -12 12 -34 0 -30 -16 -45 -7
-26 15 18 22 77 19 90 -4z m127 4 c8 -23 -5 -31 -29 -16 -14 8 -24 9 -30 3 -7
-7 1 -16 26 -26 32 -13 37 -20 34 -43 -2 -21 -9 -29 -27 -31 -39 -6 -71 7 -71
28 0 23 25 27 34 5 7 -19 36 -20 36 -1 0 7 -15 17 -32 22 -59 17 -44 74 19 74
21 0 36 -6 40 -15z m255 -37 c2 -39 7 -53 18 -53 11 0 16 14 18 53 2 37 7 52
18 52 11 0 14 -15 14 -66 l0 -65 -47 3 -48 3 -3 63 c-2 50 0 62 12 62 11 0 16
-14 18 -52z m131 10 l14 -43 13 43 c7 23 19 42 27 42 17 0 16 -13 -6 -75 -24
-69 -45 -70 -66 -3 -10 29 -20 59 -23 66 -2 6 3 12 11 12 9 0 21 -17 30 -42z
m117 -23 c0 -51 -3 -65 -15 -65 -12 0 -15 14 -15 65 0 51 3 65 15 65 12 0 15
-14 15 -65z m260 46 c5 -11 10 -40 10 -66 l0 -46 -52 3 c-49 3 -53 5 -56 29
-4 30 12 46 50 51 21 2 25 6 18 18 -7 12 -12 12 -34 0 -30 -16 -45 -7 -26 15
18 22 77 19 90 -4z m127 4 c8 -23 -5 -31 -29 -16 -14 8 -24 9 -30 3 -7 -7 1
-16 26 -26 41 -17 54 -39 36 -61 -25 -30 -100 -13 -100 22 0 18 27 16 34 -2 6
-17 32 -20 41 -5 3 5 -10 16 -30 24 -40 17 -53 39 -35 61 17 20 79 20 87 0z
m323 -4 c5 -11 10 -40 10 -66 l0 -46 -52 3 c-49 3 -53 5 -56 29 -4 30 12 46
50 51 21 2 25 6 18 18 -7 12 -12 12 -34 0 -30 -16 -45 -7 -26 15 18 22 77 19
90 -4z m187 4 c8 -23 -5 -31 -29 -16 -14 8 -24 9 -30 3 -7 -7 1 -16 26 -26 32
-13 37 -20 34 -43 -2 -21 -9 -29 -27 -31 -39 -6 -71 7 -71 28 0 23 25 27 34 5
7 -19 36 -20 36 -1 0 7 -15 17 -32 22 -59 17 -44 74 19 74 21 0 36 -6 40 -15z
m53 -34 c0 -52 8 -65 34 -55 12 4 16 20 16 55 0 37 4 49 15 49 12 0 15 -14 15
-65 l0 -65 -43 0 c-24 0 -48 5 -55 12 -18 18 -16 118 3 118 11 0 15 -12 15
-49z m204 27 c3 -13 7 -42 8 -66 l4 -43 -50 3 c-33 2 -52 9 -60 21 -16 25 4
51 43 55 31 3 40 15 20 28 -6 3 -16 1 -22 -5 -6 -6 -19 -11 -29 -11 -16 0 -17
3 -8 20 8 15 21 20 50 20 33 0 40 -4 44 -22z m190 0 c3 -13 7 -42 8 -66 l4
-43 -50 3 c-33 2 -52 9 -60 21 -16 25 4 51 43 55 31 3 40 15 20 28 -6 3 -16 1
-22 -5 -6 -6 -19 -11 -29 -11 -16 0 -17 3 -8 20 8 15 21 20 50 20 33 0 40 -4
44 -22z m68 -30 c2 -39 7 -53 18 -53 11 0 16 14 18 53 2 37 7 52 18 52 11 0
14 -15 14 -66 l0 -65 -47 3 -48 3 -3 63 c-2 50 0 62 12 62 11 0 16 -14 18 -52z
m268 -13 c0 -51 -3 -65 -15 -65 -12 0 -15 14 -15 65 0 51 3 65 15 65 12 0 15
-14 15 -65z m118 53 c7 -7 12 -22 12 -35 0 -20 -5 -23 -40 -23 -42 0 -50 -9
-26 -29 11 -9 20 -9 35 -2 13 7 22 8 26 1 11 -18 -6 -30 -45 -30 -43 0 -60 18
-60 65 0 44 17 65 53 65 18 0 38 -5 45 -12z m136 -4 c3 -9 6 -38 6 -65 0 -37
-4 -49 -15 -49 -11 0 -15 12 -15 49 0 28 -5 53 -10 56 -21 13 -40 -17 -40 -61
0 -32 -4 -44 -15 -44 -12 0 -15 14 -15 65 l0 65 49 0 c35 0 51 -4 55 -16z
m124 4 c15 -15 16 -38 1 -38 -7 0 -17 7 -23 16 -19 25 -46 7 -46 -31 0 -38 27
-56 46 -31 14 19 34 21 34 3 0 -22 -22 -37 -55 -37 -42 0 -55 16 -55 65 0 49
13 65 55 65 17 0 36 -5 43 -12z m62 -53 c0 -51 -3 -65 -15 -65 -12 0 -15 14
-15 65 0 51 3 65 15 65 12 0 15 -14 15 -65z m124 43 c3 -13 7 -42 8 -66 l4
-43 -50 3 c-33 2 -52 9 -60 21 -16 25 4 51 43 55 31 3 40 15 20 28 -6 3 -16 1
-22 -5 -6 -6 -19 -11 -29 -11 -16 0 -17 3 -8 20 8 15 21 20 50 20 33 0 40 -4
44 -22z m196 -4 c16 -40 13 -44 -35 -44 -47 0 -56 -9 -29 -31 13 -10 19 -10
36 0 23 14 33 9 25 -14 -8 -20 -65 -20 -89 2 -22 20 -23 70 -1 95 9 11 30 18
50 18 27 0 35 -5 43 -26z m202 13 c4 -7 8 -36 8 -64 0 -41 -4 -53 -15 -53 -11
0 -15 12 -15 49 0 28 -5 53 -10 56 -21 13 -40 -17 -40 -61 0 -32 -4 -44 -15
-44 -11 0 -15 12 -15 49 0 28 -5 53 -10 56 -21 13 -40 -17 -40 -61 0 -32 -4
-44 -15 -44 -12 0 -15 14 -15 65 l0 65 87 -1 c56 0 91 -5 95 -12z m266 1 c7
-7 12 -22 12 -35 0 -20 -5 -23 -40 -23 -42 0 -50 -9 -26 -29 11 -9 20 -9 35
-2 14 8 22 8 27 0 15 -26 -70 -41 -94 -17 -16 16 -16 90 0 106 7 7 26 12 43
12 17 0 36 -5 43 -12z m210 -55 c2 -51 0 -63 -12 -63 -11 0 -16 14 -18 53 -2
38 -7 52 -18 52 -11 0 -16 -14 -18 -52 -2 -38 -7 -53 -18 -53 -10 0 -14 12
-14 44 0 44 -19 74 -40 61 -5 -3 -10 -28 -10 -56 0 -37 -4 -49 -15 -49 -12 0
-15 14 -15 65 l0 65 88 -3 87 -2 3 -62z m130 55 c7 -7 12 -30 12 -53 0 -48
-13 -65 -52 -65 -23 0 -28 -4 -28 -25 0 -16 -6 -25 -15 -25 -12 0 -15 17 -15
90 l0 90 43 0 c24 0 48 -5 55 -12z m136 -4 c9 -8 16 -31 16 -49 0 -43 -22 -65
-65 -65 -38 0 -55 20 -55 65 0 45 17 65 55 65 18 0 41 -7 49 -16z m176 1 c0
-8 -9 -15 -20 -15 -17 0 -20 -7 -20 -50 0 -38 -4 -50 -15 -50 -12 0 -15 14
-15 65 l0 65 35 0 c24 0 35 -5 35 -15z m110 -11 c16 -40 13 -44 -35 -44 -47 0
-56 -9 -29 -31 13 -10 19 -10 36 0 23 14 33 9 25 -14 -8 -20 -65 -20 -89 2
-22 20 -23 70 -1 95 9 11 30 18 50 18 27 0 35 -5 43 -26z m118 14 c7 -7 12
-36 12 -66 l0 -53 -52 3 c-47 3 -53 6 -56 26 -5 32 15 52 49 52 16 0 29 4 29
9 0 18 -22 23 -46 10 -28 -15 -42 -6 -24 16 15 18 71 20 88 3z m-318 -48 c0
-5 -13 -10 -30 -10 -16 0 -30 5 -30 10 0 6 14 10 30 10 17 0 30 -4 30 -10z"/>
<path d="M2635 4448 c-77 -61 -89 -228 -16 -228 27 0 69 37 90 78 29 58 34 96
17 136 -18 43 -48 48 -91 14z"/>
<path d="M2732 2694 c-40 -28 -19 -79 30 -72 18 2 24 10 26 35 4 41 -24 60
-56 37z"/>
<path d="M3300 2753 c-41 -14 -55 -87 -22 -116 42 -38 102 -8 102 49 0 48 -39
81 -80 67z"/>
<path d="M3871 2697 c-14 -37 -14 -37 9 -37 21 0 24 12 10 45 -7 19 -9 18 -19
-8z"/>
<path d="M3547 2653 c-15 -14 -6 -33 17 -39 39 -9 50 5 22 27 -27 21 -30 22
-39 12z"/>
<path d="M1350 2695 c-11 -13 -7 -15 24 -15 37 0 48 13 20 24 -23 9 -30 8 -44
-9z"/>
<path d="M1856 2694 c-31 -30 -13 -74 30 -74 21 0 34 17 34 45 0 15 -27 45
-40 45 -5 0 -16 -7 -24 -16z"/>
<path d="M2212 2694 c-40 -28 -19 -79 30 -72 18 2 24 10 26 35 4 41 -24 60
-56 37z"/>
<path d="M2967 2704 c-15 -15 -6 -24 24 -24 20 0 29 4 27 13 -5 14 -40 21 -51
11z"/>
<path d="M4185 2696 c-11 -8 -16 -22 -13 -41 2 -24 8 -31 30 -33 19 -2 30 3
38 17 20 39 -21 82 -55 57z"/>
<path d="M4425 2694 c-33 -33 4 -92 43 -68 9 6 18 20 20 31 3 20 -21 53 -38
53 -5 0 -16 -7 -25 -16z"/>
<path d="M5427 2699 c-22 -13 -22 -65 0 -78 27 -14 53 5 53 39 0 34 -26 53
-53 39z"/>
<path d="M1562 2168 c-17 -17 -15 -53 3 -68 22 -19 37 0 33 40 -3 37 -17 47
-36 28z"/>
<path d="M2002 2168 c-30 -30 1 -94 33 -68 25 20 13 80 -15 80 -3 0 -11 -5
-18 -12z"/>
<path d="M2452 2168 c-30 -30 1 -94 33 -68 25 20 13 80 -15 80 -3 0 -11 -5
-18 -12z"/>
<path d="M3480 2161 c-13 -25 -13 -33 3 -55 8 -11 19 -15 30 -10 22 8 24 69 1
78 -22 8 -22 8 -34 -13z"/>
<path d="M1063 2173 c-22 -8 -14 -23 13 -23 15 0 24 5 22 12 -5 14 -18 18 -35
11z"/>
<path d="M1244 2119 c-11 -18 13 -34 31 -19 8 7 15 16 15 21 0 13 -38 11 -46
-2z"/>
<path d="M2134 2119 c-11 -18 13 -34 31 -19 8 7 15 16 15 21 0 13 -38 11 -46
-2z"/>
<path d="M2584 2119 c-11 -18 13 -34 31 -19 8 7 15 16 15 21 0 13 -38 11 -46
-2z"/>
<path d="M3024 2119 c-3 -6 -2 -15 3 -20 13 -13 43 -1 43 17 0 16 -36 19 -46
3z"/>
<path d="M3214 2119 c-3 -6 -2 -15 3 -20 13 -13 43 -1 43 17 0 16 -36 19 -46
3z"/>
<path d="M3683 2173 c-22 -8 -14 -23 13 -23 15 0 24 5 22 12 -5 14 -18 18 -35
11z"/>
<path d="M4114 2119 c-3 -6 -2 -15 3 -20 13 -13 43 -1 43 17 0 16 -36 19 -46
3z"/>
<path d="M4310 2165 c-11 -13 -8 -15 20 -15 28 0 31 2 20 15 -7 8 -16 15 -20
15 -4 0 -13 -7 -20 -15z"/>
<path d="M4787 2174 c-14 -14 -6 -24 19 -24 16 0 24 5 22 13 -5 14 -31 21 -41
11z"/>
<path d="M5124 2166 c-3 -8 -4 -27 -2 -43 2 -20 8 -28 23 -28 38 0 30 84 -8
85 -4 0 -10 -6 -13 -14z"/>
<path d="M5262 2168 c-30 -30 1 -94 33 -68 25 20 13 80 -15 80 -3 0 -11 -5
-18 -12z"/>
<path d="M5540 2165 c-11 -13 -8 -15 20 -15 28 0 31 2 20 15 -7 8 -16 15 -20
15 -4 0 -13 -7 -20 -15z"/>
<path d="M5664 2119 c-11 -18 13 -34 31 -19 8 7 15 16 15 21 0 13 -38 11 -46
-2z"/>
<path d="M14334 6488 c-28 -13 -44 -49 -44 -98 0 -33 3 -40 20 -40 17 0 20 7
20 43 0 24 5 48 12 55 14 14 663 18 672 4 3 -5 6 -89 6 -186 2 -171 2 -177 20
-161 16 15 18 35 19 178 1 170 -2 182 -46 205 -28 16 -648 15 -679 0z"/>
<path d="M13500 6215 c0 -98 1 -105 20 -105 19 0 20 7 20 105 0 98 -1 105 -20
105 -19 0 -20 -7 -20 -105z"/>
<path d="M14745 6308 c-2 -7 -9 -40 -15 -73 -6 -33 -14 -68 -16 -77 -5 -16 -1
-15 48 2 29 10 53 24 53 30 0 6 16 24 35 40 29 25 32 30 15 30 -11 0 -37 -14
-58 -31 -21 -17 -40 -29 -43 -26 -3 3 -1 22 5 44 6 21 11 46 11 56 0 19 -28
24 -35 5z"/>
<path d="M13750 6275 c0 -8 -4 -15 -10 -15 -5 0 -10 -9 -10 -20 0 -11 5 -20
10 -20 6 0 10 -19 10 -43 0 -52 13 -67 57 -67 38 0 47 27 11 32 -19 2 -24 10
-26 41 -3 32 0 37 17 37 14 0 21 6 21 20 0 13 -7 20 -20 20 -11 0 -20 7 -20
15 0 8 -9 15 -20 15 -11 0 -20 -7 -20 -15z"/>
<path d="M13590 6240 c-31 -31 -30 -85 2 -112 33 -29 132 -19 114 10 -3 6 -21
8 -39 5 -23 -3 -37 0 -46 11 -12 14 -8 16 43 16 53 0 56 1 56 25 0 36 -33 65
-75 65 -22 0 -43 -8 -55 -20z m88 -27 c2 -9 -8 -13 -32 -13 -20 0 -36 4 -36 9
0 22 60 25 68 4z"/>
<path d="M13860 6184 c0 -67 2 -74 20 -74 17 0 20 7 20 44 0 38 18 76 35 76
17 0 35 -38 35 -76 0 -37 3 -44 20 -44 17 0 20 7 20 50 0 37 4 52 18 58 31 17
42 3 42 -54 0 -51 1 -54 25 -54 24 0 25 3 25 53 0 67 -20 97 -64 97 -17 0 -37
-5 -44 -12 -8 -8 -15 -8 -24 0 -7 6 -39 10 -71 10 l-57 -1 0 -73z"/>
<path d="M14162 6237 c-29 -31 -29 -77 2 -106 18 -17 33 -22 67 -19 31 2 44 7
44 18 0 11 -9 14 -36 12 -23 -2 -40 2 -49 12 -11 14 -6 16 49 16 53 0 61 2 61
19 0 10 -9 30 -21 45 -27 35 -86 36 -117 3z m88 -22 c11 -13 7 -15 -30 -15
-37 0 -41 2 -30 15 7 8 20 15 30 15 10 0 23 -7 30 -15z"/>
<path d="M14419 6247 c-21 -16 -39 -51 -39 -76 0 -39 33 -59 93 -59 l55 1 14
73 c14 70 14 74 -3 74 -9 0 -19 -6 -22 -12 -4 -10 -7 -10 -18 0 -16 15 -59 15
-80 -1z m81 -38 c17 -31 -12 -71 -48 -67 -22 2 -28 9 -30 33 -6 49 56 77 78
34z"/>
<path d="M14590 6240 c-32 -32 -23 -54 28 -67 48 -12 43 -28 -10 -31 -50 -3
-64 -18 -25 -27 30 -8 60 -2 88 17 20 13 22 19 13 34 -6 11 -25 23 -43 28 -47
14 -41 39 9 34 25 -2 41 1 44 8 11 30 -75 33 -104 4z"/>
<path d="M14294 5988 c12 -64 26 -68 246 -68 164 0 200 -3 210 -15 9 -11 16
-12 25 -5 6 5 14 9 16 7 3 -1 -6 8 -19 21 -22 21 -29 22 -221 22 -208 0 -221
3 -221 47 0 17 -6 23 -21 23 -19 0 -21 -4 -15 -32z"/>
<path d="M12738 5108 c-42 -15 -50 -58 -46 -260 3 -169 4 -179 26 -200 l23
-23 1549 0 1549 0 23 23 c22 22 23 28 23 222 0 194 -1 200 -23 222 l-23 23
-1537 2 c-1008 1 -1546 -2 -1564 -9z m597 -132 c19 -14 19 -15 1 -34 -14 -16
-23 -19 -42 -12 -33 13 -72 -4 -84 -35 -21 -55 30 -106 85 -85 14 5 25 14 25
20 0 5 -11 10 -25 10 -21 0 -25 5 -25 30 l0 30 60 0 60 0 0 -30 c0 -38 -23
-84 -52 -104 -13 -9 -43 -16 -71 -16 -42 0 -54 5 -83 34 -30 30 -34 40 -34 86
0 46 4 56 34 86 29 29 41 34 83 34 27 0 58 -6 68 -14z m233 -58 c2 -11 -3 -18
-12 -18 -9 0 -16 5 -16 10 0 18 -29 10 -35 -10 -9 -27 3 -60 21 -60 8 0 14 5
14 10 0 6 7 10 16 10 9 0 14 -7 12 -17 -2 -14 -13 -18 -43 -18 -35 0 -40 3
-48 30 -5 19 -4 41 2 58 10 25 15 28 48 25 27 -2 39 -8 41 -20z m102 12 c0 -5
-7 -10 -15 -10 -8 0 -15 5 -15 10 0 6 7 10 15 10 8 0 15 -4 15 -10z m630 -50
c0 -47 -3 -60 -15 -60 -12 0 -15 13 -15 60 0 47 3 60 15 60 12 0 15 -13 15
-60z m710 56 c0 -2 3 -11 6 -20 4 -10 1 -16 -9 -16 -8 0 -17 5 -19 12 -8 24
-38 -1 -38 -32 0 -30 23 -51 38 -35 4 4 1 10 -5 12 -23 8 -14 23 13 23 22 0
25 -4 22 -27 -3 -24 -8 -29 -38 -31 -38 -4 -60 16 -60 56 0 42 18 62 55 62 19
0 35 -2 35 -4z m320 -56 c0 -33 -4 -60 -10 -60 -6 0 -10 27 -10 60 0 33 4 60
10 60 6 0 10 -27 10 -60z m-1700 20 c0 -5 -4 -10 -10 -10 -5 0 -10 -16 -10
-35 0 -24 -5 -35 -15 -35 -11 0 -15 12 -15 45 0 41 2 45 25 45 14 0 25 -4 25
-10z m30 -35 c0 -25 -4 -45 -10 -45 -5 0 -10 20 -10 45 0 25 5 45 10 45 6 0
10 -20 10 -45z m88 -3 l3 -43 -38 3 c-30 2 -38 7 -38 23 0 13 8 21 23 23 12 2
22 8 22 13 0 5 -12 6 -27 3 -26 -7 -27 -6 -14 10 9 10 25 16 40 14 23 -3 26
-8 29 -46z m130 29 c4 -11 -2 -12 -24 -7 l-29 6 28 -16 c39 -21 32 -49 -12
-49 -20 0 -36 6 -39 14 -4 11 2 12 24 7 l29 -6 -27 15 c-27 15 -35 34 -21 49
12 12 66 2 71 -13z m32 -17 c0 -45 24 -42 28 4 5 49 22 38 22 -13 0 -45 0 -45
-35 -45 -35 0 -35 0 -35 45 0 25 5 45 10 45 6 0 10 -16 10 -36z m138 -12 l3
-43 -38 3 c-30 2 -38 7 -38 23 0 13 8 21 23 23 12 2 22 8 22 13 0 5 -12 6 -27
3 -26 -7 -27 -6 -14 10 9 10 25 16 40 14 23 -3 26 -8 29 -46z m120 29 c3 -9
-2 -11 -19 -7 l-24 6 23 -11 c13 -8 22 -21 22 -36 0 -21 -4 -24 -32 -21 -17 2
-33 9 -36 16 -3 9 4 11 25 7 l28 -6 -27 16 c-27 15 -35 34 -21 49 12 11 56 2
61 -13z m90 -29 l3 -43 -38 3 c-30 2 -38 7 -38 23 0 13 8 21 23 23 12 2 22 8
22 13 0 5 -11 7 -25 3 -21 -5 -24 -3 -19 10 5 12 16 16 38 14 29 -3 31 -6 34
-46z m126 32 c3 -9 6 -29 6 -45 0 -29 -2 -30 -37 -27 -30 2 -38 7 -38 23 0 13
8 21 23 23 12 2 22 8 22 13 0 5 -11 7 -25 3 -23 -6 -33 4 -18 19 13 13 61 7
67 -9z m121 6 c5 -8 11 -7 20 0 8 6 26 10 42 8 25 -3 28 -7 28 -43 0 -36 -3
-40 -28 -43 -16 -2 -34 1 -41 7 -9 7 -16 7 -23 0 -6 -6 -21 -9 -34 -7 -18 2
-25 10 -27 31 -2 16 -1 35 2 43 6 16 52 19 61 4z m233 -37 c2 -34 0 -43 -12
-43 -12 0 -16 10 -16 35 0 19 -4 35 -10 35 -5 0 -10 -16 -10 -35 0 -24 -5 -35
-15 -35 -10 0 -15 11 -15 35 0 19 -4 35 -10 35 -5 0 -10 -16 -10 -35 0 -24 -5
-35 -15 -35 -11 0 -15 12 -15 45 l0 46 63 -3 62 -3 3 -42z m127 2 c0 -39 -1
-40 -35 -40 -31 0 -35 3 -38 28 -5 46 4 59 40 55 31 -3 33 -5 33 -43z m240 0
c0 -39 -1 -40 -35 -40 -31 0 -35 3 -38 28 -5 46 4 59 40 55 31 -3 33 -5 33
-43z m94 28 c9 -17 10 -17 16 0 5 11 18 17 42 17 l34 0 -3 -57 c-3 -57 -3 -58
-35 -61 -29 -3 -33 0 -33 22 0 29 -15 43 -24 21 -7 -18 -47 -20 -64 -3 -7 7
-12 21 -12 33 0 43 59 63 79 28z m221 -7 c5 -13 6 -34 3 -45 -4 -18 -12 -21
-36 -19 -39 4 -55 28 -39 62 16 35 59 36 72 2z"/>
<path d="M14463 4874 c-3 -8 -2 -19 3 -24 13 -13 54 -1 54 16 0 8 -6 11 -15 8
-8 -4 -15 -1 -15 5 0 17 -20 13 -27 -5z"/>
<path d="M14547 4877 c-3 -8 -1 -20 4 -28 11 -19 34 3 26 25 -8 20 -23 21 -30
3z"/>
<path d="M14817 4877 c-3 -8 -1 -20 4 -28 11 -19 34 3 26 25 -8 20 -23 21 -30
3z"/>
<path d="M15057 4877 c-3 -8 -1 -20 4 -28 11 -19 34 3 26 25 -8 20 -23 21 -30
3z"/>
<path d="M15150 4865 c0 -17 5 -25 13 -22 6 2 12 12 12 22 0 10 -6 20 -12 23
-8 2 -13 -6 -13 -23z"/>
<path d="M15240 4865 c0 -17 5 -25 13 -22 6 2 12 12 12 22 0 10 -6 20 -12 23
-8 2 -13 -6 -13 -23z"/>
<path d="M15238 4813 c7 -3 16 -2 19 1 4 3 -2 6 -13 5 -11 0 -14 -3 -6 -6z"/>
<path d="M15375 4880 c-3 -5 1 -10 10 -10 9 0 13 5 10 10 -3 6 -8 10 -10 10
-2 0 -7 -4 -10 -10z"/>
<path d="M14863 4225 c0 -33 2 -45 4 -27 2 18 2 45 0 60 -2 15 -4 0 -4 -33z"/>
<path d="M13969 4258 c-4 -39 9 -88 23 -88 9 0 9 3 0 12 -14 14 -16 55 -3 60
5 2 3 9 -5 16 -11 10 -14 10 -15 0z"/>
<path d="M13636 4242 c-3 -5 5 -8 17 -8 17 1 22 -5 22 -24 0 -20 -5 -25 -23
-24 -16 0 -20 -2 -12 -10 13 -13 44 4 48 28 6 31 -37 62 -52 38z"/>
<path d="M13714 4216 c1 -26 6 -41 16 -43 10 -3 11 -2 3 4 -6 4 -13 24 -16 43
-4 34 -4 33 -3 -4z"/>
<path d="M13753 4210 c0 -25 2 -35 4 -22 2 12 2 32 0 45 -2 12 -4 2 -4 -23z"/>
<path d="M13824 4236 c-11 -27 1 -61 21 -64 18 -2 18 -2 3 8 -26 16 -22 30 7
30 27 0 32 9 13 28 -16 16 -37 15 -44 -2z m41 -6 c3 -5 -3 -10 -14 -10 -12 0
-21 5 -21 10 0 6 6 10 14 10 8 0 18 -4 21 -10z"/>
<path d="M13891 4205 l2 -40 6 35 c4 22 12 35 21 35 9 0 17 -13 21 -35 6 -34
6 -34 8 -5 1 39 -10 54 -37 52 -19 -1 -22 -7 -21 -42z"/>
<path d="M14022 4208 c1 -41 1 -41 5 -8 3 19 10 38 16 42 8 5 6 8 -5 8 -15 0
-18 -8 -16 -42z"/>
<path d="M14072 4238 c-27 -27 -8 -69 31 -67 7 0 2 4 -10 9 -31 12 -29 30 2
30 14 0 25 4 25 8 0 9 -21 32 -30 32 -3 0 -11 -5 -18 -12z m33 -8 c3 -5 -3
-10 -15 -10 -12 0 -18 5 -15 10 3 6 10 10 15 10 5 0 12 -4 15 -10z"/>
<path d="M14182 4238 c-27 -27 -8 -69 31 -67 7 0 2 4 -10 9 -31 12 -29 30 2
30 14 0 25 4 25 8 0 9 -21 32 -30 32 -3 0 -11 -5 -18 -12z m33 -8 c3 -5 -3
-10 -15 -10 -12 0 -18 5 -15 10 3 6 10 10 15 10 5 0 12 -4 15 -10z"/>
<path d="M14255 4240 c-3 -4 4 -6 15 -3 17 5 20 0 21 -33 l2 -39 6 35 c4 22
12 35 21 35 9 0 17 -13 21 -35 6 -34 6 -34 8 -5 0 17 -3 35 -7 41 -8 12 -80
16 -87 4z"/>
<path d="M14404 4210 c1 -31 4 -35 29 -36 25 -1 27 1 26 40 l-2 41 -6 -35 c-8
-48 -38 -54 -44 -8 l-4 33 1 -35z"/>
<path d="M14483 4210 c0 -25 2 -35 4 -22 2 12 2 32 0 45 -2 12 -4 2 -4 -23z"/>
<path d="M14513 4237 c9 -7 18 -25 20 -42 4 -27 4 -26 6 8 1 49 28 51 34 2 l4
-35 -1 37 c-1 37 -2 38 -40 40 -32 2 -36 0 -23 -10z"/>
<path d="M14605 4240 c-3 -5 0 -7 9 -4 8 3 21 2 28 -2 9 -6 5 -10 -12 -14 -36
-9 -34 -45 3 -46 23 -1 27 3 27 25 0 40 -38 68 -55 41z m43 -42 c-7 -19 -38
-22 -38 -4 0 10 9 16 21 16 12 0 19 -5 17 -12z"/>
<path d="M14714 4238 c-4 -7 2 -18 14 -26 28 -19 28 -36 1 -29 -16 4 -19 3
-11 -5 14 -14 42 -3 42 16 0 8 -9 18 -20 21 -26 8 -26 29 0 22 11 -3 18 -1 14
4 -8 13 -31 11 -40 -3z"/>
<path d="M14796 4241 c-3 -5 3 -7 14 -4 27 7 25 -10 -2 -22 -33 -14 -29 -40 5
-41 26 -1 28 1 25 35 -3 35 -28 55 -42 32z m34 -40 c0 -14 -18 -23 -30 -16 -6
4 -8 11 -5 16 8 12 35 12 35 0z"/>
<path d="M14906 4241 c-3 -5 3 -7 14 -4 27 7 25 -10 -2 -22 -33 -14 -29 -40 5
-41 26 -1 28 1 25 35 -3 35 -28 55 -42 32z m34 -40 c0 -14 -18 -23 -30 -16 -6
4 -8 11 -5 16 8 12 35 12 35 0z"/>
<path d="M12888 3623 c6 -2 18 -2 25 0 6 3 1 5 -13 5 -14 0 -19 -2 -12 -5z"/>
<path d="M13683 3570 c0 -36 2 -50 4 -32 2 17 2 47 0 65 -2 17 -4 3 -4 -33z"/>
<path d="M14033 3570 c0 -36 2 -50 4 -32 2 17 2 47 0 65 -2 17 -4 3 -4 -33z"/>
<path d="M14363 3570 c0 -36 2 -50 4 -32 2 17 2 47 0 65 -2 17 -4 3 -4 -33z"/>
<path d="M13149 3609 c-2 -32 3 -84 9 -91 4 -4 6 16 5 43 -1 46 -12 82 -14 48z"/>
<path d="M12942 3570 c0 -19 2 -27 5 -17 2 9 2 25 0 35 -3 9 -5 1 -5 -18z"/>
<path d="M12983 3555 c0 -27 2 -38 4 -22 2 15 2 37 0 50 -2 12 -4 0 -4 -28z"/>
<path d="M13020 3585 c-6 -8 -10 -22 -7 -32 4 -14 5 -14 6 4 0 12 9 27 19 32
9 6 12 11 6 11 -6 0 -17 -7 -24 -15z"/>
<path d="M13233 3589 c25 -15 21 -27 -10 -32 -26 -4 -26 -4 5 -6 20 0 32 4 32
12 0 16 -20 37 -34 37 -6 0 -3 -5 7 -11z"/>
<path d="M13330 3586 c-15 -19 -9 -56 12 -69 34 -22 66 41 36 71 -16 16 -33
15 -48 -2z m45 -31 c0 -23 -4 -30 -20 -30 -21 0 -31 25 -21 51 11 28 41 12 41
-21z"/>
<path d="M13462 3588 c-24 -24 -8 -79 23 -78 5 0 2 5 -7 11 -10 5 -18 21 -18
34 0 13 8 29 18 34 9 6 12 11 7 11 -6 0 -16 -5 -23 -12z"/>
<path d="M13573 3589 c9 -5 17 -21 17 -34 0 -13 -8 -29 -17 -34 -10 -6 -13
-11 -7 -11 17 0 34 22 34 45 0 23 -17 45 -34 45 -6 0 -3 -5 7 -11z"/>
<path d="M13723 3555 c0 -27 2 -38 4 -22 2 15 2 37 0 50 -2 12 -4 0 -4 -28z"/>
<path d="M13813 3550 c0 -30 2 -43 4 -27 2 15 2 39 0 55 -2 15 -4 2 -4 -28z"/>
<path d="M13883 3589 c9 -5 17 -21 17 -34 0 -13 -8 -29 -17 -34 -10 -6 -13
-11 -7 -11 17 0 34 22 34 45 0 23 -17 45 -34 45 -6 0 -3 -5 7 -11z"/>
<path d="M14090 3596 c0 -2 7 -7 16 -10 8 -3 12 -2 9 4 -6 10 -25 14 -25 6z"/>
<path d="M14202 3588 c-13 -13 1 -38 21 -38 6 0 2 6 -8 14 -18 13 -18 13 1 24
10 6 14 12 9 12 -6 0 -16 -5 -23 -12z"/>
<path d="M14300 3596 c0 -2 7 -7 16 -10 8 -3 12 -2 9 4 -6 10 -25 14 -25 6z"/>
<path d="M14415 3590 c-3 -6 1 -7 9 -4 18 7 21 14 7 14 -6 0 -13 -4 -16 -10z"/>
<path d="M14450 3576 c0 -8 -8 -17 -17 -19 -16 -4 -16 -5 -1 -6 9 0 19 -11 21
-23 2 -13 5 -4 6 20 0 23 -1 42 -4 42 -3 0 -5 -6 -5 -14z"/>
<path d="M13531 3554 c0 -11 3 -14 6 -6 3 7 2 16 -1 19 -3 4 -6 -2 -5 -13z"/>
<path d="M13841 3554 c0 -11 3 -14 6 -6 3 7 2 16 -1 19 -3 4 -6 -2 -5 -13z"/>
<path d="M14098 3553 c7 -3 16 -2 19 1 4 3 -2 6 -13 5 -11 0 -14 -3 -6 -6z"/>
<path d="M14308 3553 c7 -3 16 -2 19 1 4 3 -2 6 -13 5 -11 0 -14 -3 -6 -6z"/>
<path d="M14241 3534 c0 -11 3 -14 6 -6 3 7 2 16 -1 19 -3 4 -6 -2 -5 -13z"/>
<path d="M14401 3534 c0 -11 3 -14 6 -6 3 7 2 16 -1 19 -3 4 -6 -2 -5 -13z"/>
<path d="M13027 3519 c7 -7 15 -10 18 -7 3 3 -2 9 -12 12 -14 6 -15 5 -6 -5z"/>
<path d="M14077 3519 c7 -7 15 -10 18 -7 3 3 -2 9 -12 12 -14 6 -15 5 -6 -5z"/>
<path d="M14287 3519 c7 -7 15 -10 18 -7 3 3 -2 9 -12 12 -14 6 -15 5 -6 -5z"/>
<path d="M12888 3513 c6 -2 18 -2 25 0 6 3 1 5 -13 5 -14 0 -19 -2 -12 -5z"/>
<path d="M13045 3490 c-16 -7 -17 -9 -3 -9 9 -1 20 4 23 9 7 11 7 11 -20 0z"/>
<path d="M12740 3137 c-46 -23 -51 -47 -48 -249 3 -180 4 -188 26 -210 l23
-23 1549 0 1549 0 23 23 c22 22 23 28 23 222 0 194 -1 200 -23 222 l-23 23
-1537 2 c-1220 2 -1542 0 -1562 -10z m1150 -177 c0 -5 -13 -10 -30 -10 -20 0
-30 -5 -30 -15 0 -9 9 -15 25 -15 14 0 25 -4 25 -10 0 -5 -11 -10 -25 -10 -16
0 -25 -6 -25 -15 0 -10 10 -15 30 -15 28 0 30 3 30 35 l0 35 49 0 c30 0 51 5
53 12 3 9 10 7 24 -6 13 -14 15 -21 6 -24 -14 -4 -16 -52 -2 -52 6 0 10 -4 10
-10 0 -5 -9 -10 -20 -10 -16 0 -20 7 -20 35 0 19 -4 35 -10 35 -5 0 -10 -16
-10 -35 0 -24 -5 -35 -15 -35 -10 0 -15 11 -15 35 0 19 -4 35 -10 35 -5 0 -10
-16 -10 -35 l0 -35 -55 0 -55 0 0 60 0 60 40 0 c22 0 40 -4 40 -10z m790 -50
c0 -33 -4 -60 -10 -60 -6 0 -10 27 -10 60 0 33 4 60 10 60 6 0 10 -27 10 -60z
m-518 -16 l3 -44 -38 0 c-34 0 -38 3 -35 23 2 14 11 23 26 25 37 5 25 19 -15
18 -35 -2 -38 -4 -41 -34 -5 -48 -22 -39 -22 12 l0 44 59 1 59 0 4 -45z m68
37 c0 -5 -7 -11 -15 -15 -9 -3 -15 -18 -15 -36 0 -16 -4 -30 -10 -30 -5 0 -10
20 -10 45 0 41 2 45 25 45 14 0 25 -4 25 -9z m118 -38 c2 -34 0 -43 -12 -43
-12 0 -16 10 -16 35 0 19 -4 35 -10 35 -5 0 -10 -16 -10 -35 0 -24 -5 -35 -15
-35 -11 0 -15 12 -15 46 l0 45 38 -3 c36 -3 37 -4 40 -45z m86 31 c3 -9 6 -29
6 -45 0 -29 -2 -30 -37 -27 -30 2 -38 7 -38 23 0 13 8 21 23 23 12 2 22 8 22
13 0 5 -11 7 -25 3 -23 -6 -33 4 -18 19 13 13 61 7 67 -9z m122 5 c3 -6 0 -15
-7 -20 -10 -6 -11 -9 -1 -9 6 0 12 -11 12 -25 0 -21 -5 -25 -29 -25 -16 0 -35
7 -42 16 -12 15 -10 16 21 10 l35 -7 -27 16 c-27 15 -35 34 -21 48 10 11 51 8
59 -4z m88 -5 c3 -9 6 -29 6 -45 0 -29 -2 -30 -37 -27 -30 2 -38 7 -38 23 0
13 8 21 23 23 12 2 22 8 22 13 0 5 -11 7 -25 3 -23 -6 -33 4 -18 19 13 13 61
7 67 -9z m128 -29 l3 -45 -38 0 c-34 0 -38 3 -35 23 2 14 11 23 26 25 12 2 22
8 22 13 0 5 -11 7 -25 3 -14 -3 -25 -2 -25 3 0 16 12 23 41 23 25 0 27 -4 31
-45z"/>
</g>
</svg>
